<svg height="480pt" viewBox="0 -96 480 480" width="480pt" xmlns="http://www.w3.org/2000/svg"><path d="m48 111.136719c0-4.417969-3.582031-8-8-8s-8 3.582031-8 8c0 62.554687 59.148438 97.300781 84.578125 109.335937 3.992187 1.890625 8.761719.183594 10.652344-3.808594 1.890625-3.992187.183593-8.761718-3.808594-10.652343-22.679687-10.734375-75.421875-41.460938-75.421875-94.875zm0 0"/><path d="m472 135.996094h-57.585938l-14.601562-65.734375c-.757812-3.804688-4.203125-6.476563-8.078125-6.261719-3.847656.128906-7.054687 2.976562-7.640625 6.78125l-21.9375 142.605469-18.1875-206.09375c-.355469-4.03125-3.664062-7.164063-7.710938-7.292969-4.015624-.046875-7.472656 2.824219-8.164062 6.78125l-24.40625 158.65625-15.796875-94.757812c-.632813-3.777344-3.851563-6.578126-7.679687-6.679688-3.816407-.0625-7.15625 2.546875-8.023438 6.261719l-14.601562 65.734375h-19.972657c1.585938-8.191406 2.382813-16.515625 2.386719-24.859375 0-61.300781-35.492188-74.898438-50.75-77.898438-25.613281-4.519531-51.753906 4.40625-69.25 23.648438-17.492188-19.25-43.636719-28.179688-69.25-23.648438-15.257812 3-50.75 16.597657-50.75 77.898438 0 102.261719 112.570312 142.738281 117.359375 144.414062 1.710937.59375 3.570313.59375 5.28125 0 4.089844-1.429687 86.746094-31.199219 110.796875-103.554687h30.5625c3.75 0 6.996094-2.605469 7.8125-6.265625l7.0625-31.804688 17.234375 103.386719c.644531 3.859375 3.980469 6.683594 7.890625 6.683594h.046875c3.929687-.023438 7.261719-2.898438 7.859375-6.785156l21.9375-142.605469 18.1875 206.09375c.355469 4.03125 3.664062 7.164062 7.710938 7.292969l.257812.003906c3.949219 0 7.304688-2.882813 7.90625-6.785156l25.523438-165.898438 6.757812 30.417969c.816406 3.660156 4.0625 6.265625 7.8125 6.265625h64c4.417969 0 8-3.582032 8-8 0-4.417969-3.582031-8-8-8zm-250.824219 0h-70.3125c-4.027343-15.601563-19.03125-25.773438-35.015625-23.746094-15.984375 2.03125-27.96875 15.632812-27.96875 31.746094 0 16.113281 11.984375 29.714844 27.96875 31.746094s30.988282-8.144532 35.015625-23.746094h65.371094c-21.769531 54.945312-82.769531 82.039062-96.234375 87.433594-16.460938-6.597657-104-45.59375-104-128.292969 0-35.3125 13.4375-57.402344 37.835938-62.199219 3.1875-.617188 6.425781-.925781 9.671874-.914062 20.640626 0 42.757813 11.578124 49.085938 27.042968 1.230469 3.007813 4.15625 4.96875 7.40625 4.96875s6.175781-1.960937 7.40625-4.96875c7.335938-17.929687 35.851562-30.671875 58.757812-26.128906 24.398438 4.796875 37.835938 26.886719 37.835938 62.199219 0 8.367187-.949219 16.707031-2.824219 24.859375zm-101.175781 16h13.773438c-3.621094 6.273437-11 9.328125-17.996094 7.457031-6.996094-1.875-11.859375-8.214844-11.859375-15.457031 0-7.242188 4.863281-13.578125 11.859375-15.453125s14.375 1.183593 17.996094 7.453125h-13.773438c-4.417969 0-8 3.582031-8 8 0 4.417968 3.582031 8 8 8zm0 0"/></svg>