<?xml version="1.0" encoding="iso-8859-1"?>
<!-- Generator: Adobe Illustrator 19.0.0, SVG Export Plug-In . SVG Version: 6.00 Build 0)  -->
<svg version="1.1" id="Capa_1" xmlns="http://www.w3.org/2000/svg" xmlns:xlink="http://www.w3.org/1999/xlink" x="0px" y="0px"
	 viewBox="0 0 496 496" style="enable-background:new 0 0 496 496;" xml:space="preserve">
<g>
	<g>
		<path d="M452,212c-29.936,0-56.896,17.784-68.68,45.296L369.04,290.6l31.936-12.776C417.28,271.304,434.448,268,452,268
			c15.44,0,28-12.56,28-28S467.44,212,452,212z M452,252c-18.184,0-35.992,3.176-53.008,9.456C408.712,241.056,429.264,228,452,228
			c6.616,0,12,5.384,12,12C464,246.616,458.616,252,452,252z"/>
	</g>
</g>
<g>
	<g>
		<path d="M427.16,100h-2.064c-13.704,0-25.6,9.752-28.288,23.184c-3.192,15.952-4.808,32.272-4.808,48.52v53.176l29.76-49.592
			c5.344-8.912,12.744-16.68,21.4-22.448c8.04-5.368,12.84-14.336,12.84-24C456,112.936,443.064,100,427.16,100z M434.28,139.528
			c-10.608,7.072-19.68,16.592-26.232,27.512c0.28-13.648,1.768-27.328,4.448-40.712c1.192-5.984,6.496-10.328,12.592-10.328h2.064
			c7.088,0,12.848,5.76,12.848,12.84C440,133.144,437.864,137.136,434.28,139.528z"/>
	</g>
</g>
<g>
	<g>
		<path d="M96.688,257.304C84.896,229.784,57.936,212,28,212c-15.44,0-28,12.56-28,28s12.56,28,28,28
			c17.552,0,34.72,3.304,51.024,9.832l31.944,12.776L96.688,257.304z M28,252c-6.616,0-12-5.384-12-12c0-6.616,5.384-12,12-12
			c22.736,0,43.288,13.056,53.008,33.456C63.992,255.176,46.184,252,28,252z"/>
	</g>
</g>
<g>
	<g>
		<path d="M83.192,123.192C80.504,109.752,68.616,100,54.912,100H52.84C36.936,100,24,112.936,24,128.84c0,9.664,4.8,18.64,12.84,24
			c8.656,5.768,16.048,13.528,21.4,22.448L88,224.88v-53.176C88,155.456,86.384,139.136,83.192,123.192z M45.72,139.536
			c-3.584-2.392-5.72-6.384-5.72-10.696c0-7.08,5.76-12.84,12.84-12.84h2.064c6.104,0,11.4,4.344,12.6,10.328
			c2.672,13.384,4.168,27.064,4.448,40.712C65.4,156.12,56.32,146.6,45.72,139.536z"/>
	</g>
</g>
<g>
	<g>
		<path d="M488,396c-23.328,0-35.2,11.864-45.672,22.344c-9.48,9.48-17.664,17.656-34.36,17.656c-16.696,0-24.88-8.176-34.36-17.656
			c-10.48-10.48-22.36-22.344-45.68-22.344c-23.312,0-35.176,11.864-45.648,22.344c-9.472,9.48-17.648,17.656-34.336,17.656
			c-16.688,0-24.872-8.176-34.344-17.656C203.128,407.864,191.256,396,167.936,396c-23.312,0-35.176,11.864-45.648,22.344
			C112.824,427.824,104.64,436,87.96,436c-16.672,0-24.848-8.176-34.32-17.656C43.168,407.872,31.304,396,8,396H0v16h8
			c16.672,0,24.848,8.176,34.328,17.656C52.792,440.136,64.656,452,87.96,452c23.312,0,35.176-11.864,45.648-22.344
			c9.472-9.48,17.648-17.656,34.328-17.656c16.688,0,24.872,8.176,34.344,17.656C212.76,440.136,224.632,452,247.944,452
			s35.176-11.864,45.648-22.344c9.472-9.48,17.656-17.656,34.336-17.656c16.696,0,24.88,8.176,34.36,17.656
			c10.48,10.48,22.352,22.344,45.68,22.344c23.32,0,35.192-11.864,45.672-22.344C463.12,420.176,471.304,412,488,412h8v-16H488z"/>
	</g>
</g>
<g>
	<g>
		<path d="M488,340c-23.328,0-35.2,11.864-45.672,22.344c-9.48,9.48-17.664,17.656-34.36,17.656c-16.696,0-24.88-8.176-34.36-17.656
			c-10.48-10.48-22.36-22.344-45.68-22.344c-23.312,0-35.176,11.864-45.648,22.344c-9.472,9.48-17.648,17.656-34.336,17.656
			c-16.688,0-24.872-8.176-34.344-17.656C203.128,351.864,191.256,340,167.936,340c-23.312,0-35.176,11.864-45.648,22.344
			C112.824,371.824,104.64,380,87.96,380c-16.672,0-24.848-8.176-34.32-17.656C43.168,351.872,31.304,340,8,340H0v16h8
			c16.672,0,24.848,8.176,34.328,17.656C52.792,384.136,64.656,396,87.96,396c23.312,0,35.176-11.864,45.648-22.344
			c9.472-9.48,17.648-17.656,34.328-17.656c16.688,0,24.872,8.176,34.344,17.656C212.76,384.136,224.632,396,247.944,396
			s35.176-11.864,45.648-22.344c9.472-9.48,17.656-17.656,34.336-17.656c16.696,0,24.88,8.176,34.36,17.656
			c10.48,10.48,22.352,22.344,45.68,22.344c23.32,0,35.192-11.864,45.672-22.344C463.12,364.176,471.304,356,488,356h8v-16H488z"/>
	</g>
</g>
<g>
	<g>
		<path d="M488,284c-23.328,0-35.2,11.864-45.672,22.344c-9.48,9.48-17.664,17.656-34.36,17.656c-16.696,0-24.88-8.176-34.36-17.656
			c-7.08-7.08-14.896-14.704-26.352-18.968C360.816,267.488,368,244.384,368,220v-48c0-66.168-53.832-120-120-120
			s-120,53.832-120,120v48c0,24.368,7.168,47.464,20.72,67.344c-11.504,4.248-19.336,11.904-26.432,19
			C112.824,315.824,104.64,324,87.96,324c-16.672,0-24.848-8.176-34.32-17.656C43.168,295.872,31.304,284,8,284H0v16h8
			c16.672,0,24.848,8.176,34.328,17.656C52.792,328.136,64.656,340,87.96,340c23.312,0,35.176-11.864,45.648-22.344
			c9.472-9.48,17.648-17.656,34.328-17.656c16.688,0,24.872,8.176,34.344,17.656C212.76,328.136,224.632,340,247.944,340
			s35.176-11.864,45.648-22.344c9.472-9.48,17.656-17.656,34.336-17.656c16.696,0,24.88,8.176,34.36,17.656
			c10.48,10.48,22.352,22.344,45.68,22.344c23.32,0,35.192-11.864,45.672-22.344C463.12,308.176,471.304,300,488,300h8v-16H488z
			 M248,68c54.648,0,99.48,42.392,103.592,96H144.408C148.52,110.392,193.352,68,248,68z M144,180h208v32h-17.136
			c-3.576-13.768-16-24-30.864-24h-16c-14.864,0-27.288,10.232-30.864,24h-18.272c-3.576-13.768-16-24-30.864-24h-16
			c-14.864,0-27.288,10.232-30.864,24H144V180z M320,220c0,8.824-7.176,16-16,16h-16c-8.824,0-16-7.176-16-16
			c0-8.824,7.176-16,16-16h16C312.824,204,320,211.176,320,220z M224,220c0,8.824-7.176,16-16,16h-16c-8.824,0-16-7.176-16-16
			c0-8.824,7.176-16,16-16h16C216.824,204,224,211.176,224,220z M327.928,284c-23.312,0-35.176,11.864-45.648,22.344
			c-9.472,9.48-17.648,17.656-34.336,17.656c-16.688,0-24.872-8.176-34.344-17.656C203.128,295.864,191.256,284,167.936,284
			c-0.64,0-1.192,0.096-1.816,0.12c-12.816-16.336-20.256-35.592-21.792-56.12h16.808c3.576,13.768,16,24,30.864,24h16
			c14.864,0,27.288-10.232,30.864-24h18.272c3.576,13.768,16,24,30.864,24h16c14.864,0,27.288-10.232,30.864-24h16.808
			c-1.536,20.528-8.984,39.792-21.8,56.128C329.2,284.104,328.616,284,327.928,284z"/>
	</g>
</g>
<g>
	<g>
		<rect x="448" y="180" width="16" height="16"/>
	</g>
</g>
<g>
	<g>
		<rect x="480" y="44" width="16" height="16"/>
	</g>
</g>
<g>
	<g>
		<rect x="368" y="84" width="16" height="16"/>
	</g>
</g>
<g>
	<g>
		<rect x="112" y="60" width="16" height="16"/>
	</g>
</g>
<g>
	<g>
		<rect x="96" y="212" width="16" height="16"/>
	</g>
</g>
<g>
	<g>
		<rect y="68" width="16" height="16"/>
	</g>
</g>
<g>
</g>
<g>
</g>
<g>
</g>
<g>
</g>
<g>
</g>
<g>
</g>
<g>
</g>
<g>
</g>
<g>
</g>
<g>
</g>
<g>
</g>
<g>
</g>
<g>
</g>
<g>
</g>
<g>
</g>
</svg>
